<svg version="1.1" xmlns="http://www.w3.org/2000/svg" xmlns:xlink="http://www.w3.org/1999/xlink" width="111.87574" height="114.76848" viewBox="0,0,111.87574,114.76848"><defs><linearGradient x1="237.4143" y1="122.54843" x2="237.4143" y2="237.31691" gradientUnits="userSpaceOnUse" id="color-1"><stop offset="0" stop-color="#000000"/><stop offset="1" stop-color="#000000" stop-opacity="0"/></linearGradient><radialGradient cx="240" cy="180" r="46.78541" gradientUnits="userSpaceOnUse" id="color-2"><stop offset="0" stop-color="#000000"/><stop offset="1" stop-color="#000000" stop-opacity="0"/></radialGradient></defs><g transform="translate(-181.47643,-122.54843)"><g data-paper-data="{&quot;isPaintingLayer&quot;:true}" stroke-miterlimit="10" stroke-dasharray="" stroke-dashoffset="0" style="mix-blend-mode: normal"><g fill-rule="evenodd"><path d="M222.45,199.3c0.6,0.8 3.3,2 -0.2,4.2c-3.6,2.1 -12.7,5 -21.6,-2.9c-9.6,-8.6 -4.5,-20.3 -0.1,-20.7c4.3,-0.4 2.6,6.6 5.7,14.4c4.4,11.3 15.6,4.2 16.2,5z" fill="#ffab19" stroke="#001026" stroke-width="1.2" stroke-linecap="round" stroke-linejoin="round"/><path d="M203.35,185.1c0.5,4.4 1.5,7.4 1.5,7.4c0,0 -1.6,-2 -4,-1.6c-2.9,0.5 -3.8,2.9 -3.9,3.6c-0.7,-1.7 -1.3,-3.8 -1.1,-7.4c0.5,-3.5 2.7,-7.1 5.2,-6.7c2,0.4 1.9,2 2.3,4.7z" fill="#ffffff" stroke="none" stroke-width="1" stroke-linecap="butt" stroke-linejoin="miter"/></g><path d="M227.15,209.7c-0.7,0.9 -2.7,4.4 -7.5,7.4c-3.3,2.1 -11.8,-1.4 -11.8,-1.4c0.9,9.2 -6.6,9 -8,6c-1.1,-2.4 -0.9,-12.7 1.3,-13.5c3.4,-1.2 8,0.8 12.1,0.8c1.2,0 2.5,-2.6 5.3,-5.4c2,-2 4.6,-5.7 8.8,-3.1c3.6,2.3 1.7,6.5 -0.2,9.2z" fill="#ffab19" fill-rule="evenodd" stroke="#001026" stroke-width="1.2" stroke-linecap="round" stroke-linejoin="round"/><path d="M244.35,188.5c0.3,2.2 0.5,10.6 2.9,11.9c2.3,1.2 9.3,-0.8 9.7,4.1c0.4,4.8 -6.1,4.9 -11.5,3.4c-7,-1.9 -10.2,-12.6 -6.2,-19.2c1.5,-2.3 4.8,-2.5 5.1,-0.2z" fill="#ffab19" fill-rule="evenodd" stroke="#001026" stroke-width="1.2" stroke-linecap="round" stroke-linejoin="round"/><g fill-rule="evenodd"><path d="M241.85,211.5c0.6,3.3 -4.2,10.8 -4.2,10.8c0,0 6,4.1 2.2,8.3c-2.8,3.1 -5,0.6 -12.3,-6.5c-1.1,-1.1 -1.1,-2.7 -0.2,-3.8c2.1,-2.4 5.1,-6.5 3.1,-8.4c-2.8,-2 -6,-4 -8,-5.2c-8.2,-4.8 -2.2,-10.7 2.3,-19c2.4,-4.5 3.6,-3.3 9.6,-2.1c3.4,0.5 5.4,0.8 7.6,0.7c3.3,-0.1 2.7,4.7 1.8,7.2c0,0 -1.4,3.7 -2.7,5.6c-1.6,2.4 -3.4,4.8 -4.6,5.7c0,0 4.7,3.5 5.4,6.7z" fill="#ffab19" stroke="#001026" stroke-width="1.2" stroke-linecap="round" stroke-linejoin="round"/><path d="M235.6784,204.7029c0,0 -1.5,-1.2 -3.1,-2.7c-2,-1.8 -4,-3.3 -2,-6.4c1.8,-2.4 3.5,-5.6 8,-2.7c4.3,2.7 2.4,5.2 2.4,5.2c-2.2,4.5 -5.3,6.6 -5.3,6.6z" fill="#ffffff" stroke="none" stroke-width="1" stroke-linecap="butt" stroke-linejoin="miter"/></g><path d="M226.55,191.7c-2.2,1 -6.3,-0.8 -7.4,-0.6c-0.3,0.1 -2.1,5.3 -3.2,8.4c-1.5,4.4 -8.3,3.1 -8.7,-1.5c-0.3,-4.3 3.6,-12.6 4.9,-14.1c2.9,-3.5 12.7592,-0.6917 19.3463,1.0565" fill="#ffab19" fill-rule="evenodd" stroke="#001026" stroke-width="1.2" stroke-linecap="round" stroke-linejoin="round"/><g fill-rule="evenodd"><path d="M252.7,128c0.3,-0.2 0.8,-0.1 0.9,0.3l2.6,10.7c0,0 6.4,4.7 8.3,8c3.2,5.5 3.3,10 3.3,10c0,0 7.1,2.1 8.3,7.8c1.2,5.7 -3.2,16.5 -22,20.2c-18.8,3.7 -33.9,-1.4 -41,-12.8c-7.1,-11.4 4.1,-25 3.5,-24.2l-2.1,-17.9c-0.1,-0.4 0.4,-0.7 0.8,-0.5l12.1,7.9c0,0 4.5,-1.7 9.2,-1.9c2.8,-0.2 5.2,0 7.5,0.4z" fill="#ffab19" stroke="#001026" stroke-width="1.2" stroke-linecap="butt" stroke-linejoin="miter"/><path d="M267.5,157.4c0,0 6.9,1.8 8.1,7.5c1.2,5.7 -3.6,16 -22.2,19.6c-24.2,5 -35.7,-9.4 -29,-20c6.7,-10.7 18.2,-1.6 26.6,-2.2c7.2,-0.5 8,-6.8 16.5,-4.9z" fill="#ffffff" stroke="none" stroke-width="1" stroke-linecap="butt" stroke-linejoin="miter"/><path d="M236,168.1c0,-0.4 0.4,-0.7 0.8,-0.6c1.9,0.7 7.3,2.3 13.3,2.7c5.4,0.3 8.6,0 10.1,-0.3c0.5,-0.1 0.9,0.4 0.7,0.9c-0.9,2.7 -4.7,10.2 -15.2,9.6c-9.1,-1 -10,-7.4 -9.7,-12.3z" fill="#ffffff" stroke="#001026" stroke-width="1.2" stroke-linecap="round" stroke-linejoin="round"/><path d="M285.9,158.5c-4.7,3.8 -11.9,3.9 -11.9,3.9" fill="none" stroke="#001026" stroke-width="1.2" stroke-linecap="round" stroke-linejoin="round"/><path d="M284.6,169.7c-6.3,0.5 -10.2,-1.4 -10.2,-1.4" fill="none" stroke="#001026" stroke-width="1.2" stroke-linecap="round" stroke-linejoin="round"/><path d="M250.6,159.7c2.1,0 4.3,0.2 4.4,0.9c0.1,1.4 -1.4,4.2 -3,4.3c-1.8,0.2 -6,-2.3 -6,-3.9c-0.1,-1.2 2.6,-1.3 4.6,-1.3z" fill="#001026" stroke="#001026" stroke-width="1.2" stroke-linecap="round" stroke-linejoin="round"/><path d="M205.6,158.2c0,0 8.6,2.8 12.1,5.9" fill="none" stroke="#001026" stroke-width="1.2" stroke-linecap="round" stroke-linejoin="round"/><path d="M218,167.6c-4.3,1.7 -11.7,0.6 -11.7,0.6" fill="none" stroke="#001026" stroke-width="1.2" stroke-linecap="round" stroke-linejoin="round"/><g><path d="M262.4,148c2.9,4.5 3,9.6 0.2,11.4c-2.8,1.8 -7.4,-0.3 -10.4,-4.8c-2.9,-4.5 -3,-9.6 -0.2,-11.4c2.8,-1.9 7.5,0.3 10.4,4.8z" fill="#ffffff" stroke="#001026" stroke-width="1.2" stroke-linecap="round" stroke-linejoin="round"/><path d="M262,153.7c0,1.1 -0.8,2 -1.8,2c-1,0 -1.8,-0.9 -1.8,-2c0,-1.1 0.8,-2 1.8,-2c1,0 1.8,0.9 1.8,2" fill="#001026" stroke="none" stroke-width="1" stroke-linecap="butt" stroke-linejoin="miter"/></g><g><path d="M237.6,150.8c3,4.4 2.8,9.8 0.1,11.7c-3.3,1.9 -7.7,0.5 -10.7,-3.9c-3.1,-4.4 -3.3,-10.1 -0.2,-12.3c3.1,-2.3 7.8,0.1 10.8,4.5z" fill="#ffffff" stroke="#001026" stroke-width="1.2" stroke-linecap="round" stroke-linejoin="round"/><path d="M237,156.6c0,1.1 -0.8,2 -1.8,2c-1,0 -1.8,-0.9 -1.8,-2c0,-1.1 0.8,-2 1.8,-2c1,0.1 1.8,0.9 1.8,2" fill="#001026" stroke="none" stroke-width="1" stroke-linecap="butt" stroke-linejoin="miter"/></g></g><g fill-rule="nonzero" stroke-linecap="butt" stroke-linejoin="miter"><path d="M279.29782,164.40203c1.11803,2.23607 -1.11803,3.3541 -1.11803,3.3541l-1.59963,0.78682c-6.98757,2.67719 -14.5133,8.00008 -22.26742,8.70439c-0.40742,0.33023 -0.81829,0.65241 -1.23312,0.96491c-0.05067,0.03817 -1.52915,0.95495 -3.25351,2.02187c0.69852,2.42747 1.39305,4.86112 1.82284,7.27358c0.39698,2.22829 0.75245,4.47278 1.07316,6.72527c7.39245,-1.73949 14.83367,-3.31952 22.3615,-4.67453c4.18315,-0.75297 8.25854,-1.44613 12.47373,-1.99655l2.93127,-0.38234c0.11869,-0.01729 0.24009,-0.02625 0.36357,-0.02625c1.38071,0 2.5,1.11929 2.5,2.5c0,0.46716 -0.12813,0.90439 -0.35117,1.27847l-1.35726,2.3752l-0.03726,-0.02129c-0.08859,0.1634 -0.18656,0.32226 -0.29553,0.47578c-1.0728,1.5113 -3.02936,2.13612 -4.55264,3.19186c-4.18165,2.89818 -8.33216,5.69962 -12.73046,8.25814c-6.14887,3.57684 -12.29589,7.22614 -18.5114,10.74998c0.40631,1.47673 1.0154,2.93799 0.93206,4.45324c-0.00491,0.08923 -0.01115,0.17824 -0.01866,0.26707h0.03296v4.13713c0,1.38071 -1.11929,2.5 -2.5,2.5c-0.88216,0 -1.65761,-0.45691 -2.10259,-1.14699l-1.3458,-2.02161c-1.09996,-1.19695 -2.18756,-2.40345 -3.26385,-3.6187c-3.56591,1.91335 -7.16381,3.75831 -10.8065,5.49883c-0.29496,0.14093 -0.59024,0.28119 -0.88581,0.42084c-1.05626,1.39034 -3.43054,1.6381 -5.06138,2.48546c-4.07194,2.11573 -9.25693,5.0728 -13.76018,6.06109l-4.41909,2.06224c-0.33321,0.16447 -0.70836,0.25688 -1.10509,0.25688c-1.38071,0 -2.5,-1.11929 -2.5,-2.5c0,-1.01251 0.60191,-1.88443 1.46743,-2.27747l2.67138,-1.2832l0.00133,0.00276l0.0048,-0.00569c0.66656,-0.31572 1.33464,-0.62823 2.00394,-0.93815c1.68335,-1.41623 3.85927,-2.03857 6.0069,-2.71758c3.4918,-1.5544 6.99272,-3.08903 10.4617,-4.69039c-0.28228,-0.65375 -1.04281,-1.29495 -1.38994,-1.93586c-2.319,-4.28156 -4.77248,-8.49796 -7.1374,-12.75481c-0.16108,-0.28995 -0.32186,-0.58005 -0.48233,-0.87029c-1.85586,0.52469 -3.71244,1.05428 -5.5704,1.58781c-6.38746,1.83421 -12.66897,3.80877 -18.95999,5.95015c-1.63297,0.55584 -6.26597,2.348 -8.4087,2.39858l-4.84346,1.00905c-0.18044,0.0414 -0.36833,0.06327 -0.56133,0.06327c-1.38071,0 -2.5,-1.11929 -2.5,-2.5c0,-0.89216 0.46733,-1.67517 1.17055,-2.11759c1.39699,-0.90896 6.19593,-4.03142 7.59292,-4.94038c8.13988,-5.29021 17.08965,-8.91184 25.59893,-13.51246c-0.75532,-1.44014 -1.5064,-2.88236 -2.25433,-4.32618c-6.23324,4.00407 -12.68001,7.68324 -19.37532,10.95069c-1.49816,0.73028 -2.99631,1.46055 -4.49447,2.19083l-3.21771,1.56847c-0.3422,0.17594 -0.73026,0.27524 -1.14152,0.27524c-1.38071,0 -2.5,-1.11929 -2.5,-2.5c0,-0.79432 0.37044,-1.50211 0.94799,-1.96004l3.87469,-3.12475c1.09422,-1.25717 2.59421,-2.09313 3.89207,-3.13876c5.6841,-4.57945 11.98174,-7.99572 18.43765,-11.21453c-3.65524,-7.14477 -7.27566,-14.30839 -10.99075,-21.43008l-1.6898,-3.04165c-0.21408,-0.36858 -0.33666,-0.79688 -0.33666,-1.25381c0,-1.38071 1.11929,-2.5 2.5,-2.5c0.58212,0 1.11777,0.19896 1.54266,0.53258l3.94474,3.03441l-0.01555,0.02021c0.05178,0.03133 0.10337,0.06303 0.15475,0.09512c1.46469,0.91477 2.41007,2.47389 3.6128,3.71308c4.5791,4.71787 8.39478,10.09354 12.20096,15.46385c2.13189,-1.04791 4.26303,-2.09613 6.39298,-3.14589c2.7397,-2.10344 5.41946,-4.26801 8.0287,-6.48591c-2.44005,-1.85651 -4.7059,-3.9432 -6.80527,-6.28129c-1.3779,-1.53457 -3.36926,-2.81816 -3.88571,-4.81485c-0.50571,-1.95517 0.73286,-3.97197 1.09929,-5.95796c1.81587,-0.90793 3.42922,-2.50505 5.4476,-2.7238c1.43624,-0.15566 2.71113,1.02196 3.98604,1.7014c2.5165,1.34113 4.82656,2.91413 6.74043,4.87036c1.23779,-3.6585 2.12398,-7.44036 2.6572,-11.3284c0.43405,-3.16496 0.67819,-6.36602 0.66599,-9.56058c-0.00471,-1.23301 -0.30999,-2.06532 -0.38597,-2.89048c-0.85961,0.84691 -1.85868,1.57054 -2.78451,2.34613c-2.02622,1.69742 -4.32021,3.04682 -6.48188,4.568c-4.04301,2.84508 -8.24177,5.56272 -12.1715,8.56167c-3.38535,2.58352 -6.52097,6.88074 -10.28311,8.80289c-0.05834,0.02981 -0.11687,0.05914 -0.17559,0.08802l0.01296,0.02106l-4.22462,2.59977c-0.38811,0.2479 -0.84923,0.39157 -1.34391,0.39157c-1.38071,0 -2.5,-1.11929 -2.5,-2.5c0,-0.42599 0.10655,-0.8271 0.29445,-1.17813l1.41695,-2.78404l0.00705,0.00359l0.00392,-0.02489c3.74743,-6.98875 9.12787,-12.28716 14.1045,-18.4094c0.96369,-1.18553 1.92932,-2.37637 2.76602,-3.65469c0.44384,-0.67811 0.74008,-1.44356 1.05868,-2.18876c0.16781,-0.39249 0.64825,-1.56279 0.39756,-1.2173c-0.61276,0.84448 -0.83288,1.94666 -1.50553,2.74426c-4.03732,4.78728 -9.5499,8.63716 -13.97029,13.08515c-2.917,2.93521 -5.44681,6.16363 -8.07299,9.35256c0,0 -1.58927,1.92983 -3.51909,0.34056c-1.92983,-1.58927 -0.34056,-3.51909 -0.34056,-3.51909c5.81781,-7.06448 12.14571,-13.3079 18.8421,-19.54589c1.4322,-1.33416 7.97512,-7.71075 9.63917,-7.34109c2.2743,0.50523 3.13785,3.73614 3.52916,6.03278c0.44172,2.59253 -3.6851,7.49505 -4.93337,9.05176c-2.29358,2.86029 -4.72715,5.51621 -7.03003,8.26058c0.01282,-0.01095 0.02563,-0.0219 0.03845,-0.03287c6.66243,-5.70372 14.60858,-9.76763 21.3002,-15.39808c0.96887,-0.81523 6.82526,-7.01596 8.68371,-5.90068c0.97621,0.58584 2.60947,7.83595 2.62575,10.18297c0.05908,8.51773 -1.44526,17.02378 -4.4504,24.95402c2.051,-1.83205 4.08952,-3.6796 6.03314,-5.60369c4.19041,-4.14831 7.44343,-9.83166 12.03477,-13.51122c0.00759,-0.00608 0.01518,-0.01216 0.02278,-0.01822l-0.00321,-0.00299l3.40656,-3.64989c0.45655,-0.49183 1.10867,-0.79959 1.83267,-0.79959c1.38071,0 2.5,1.11929 2.5,2.5c0,0.27016 -0.04285,0.53031 -0.12213,0.77403l-1.01758,3.39195l-0.22018,-0.06606l-0.01,0.59887c-6.03901,6.60781 -12.50644,12.70757 -18.96973,18.89702c-0.82287,0.78801 -1.64826,1.65396 -2.48119,2.55191c6.05202,-3.06993 12.08217,-6.18572 18.08014,-9.37566l4.29962,-2.41854c0.37101,-0.218 0.80324,-0.343 1.26466,-0.343c1.38071,0 2.5,1.11929 2.5,2.5c0,0.59694 -0.20922,1.14502 -0.55833,1.57491l-3.10575,3.89272c-1.62459,2.88752 -4.55481,5.20054 -6.93561,7.3683c-0.35669,0.32477 -0.71272,0.65452 -1.06849,0.98796c3.88539,-1.61993 7.52754,-3.55451 11.49759,-5.08693l1.15846,-0.59222c0,0 2.23607,-1.11803 3.3541,1.11803zM252.49804,172.31847c3.29121,-2.67001 6.62304,-5.73633 9.62476,-8.75751c-4.58426,2.38916 -9.18521,4.74329 -13.79804,7.07324c0.66882,0.28113 1.34111,0.55131 2.01469,0.81213c0.7195,0.27861 1.40329,0.77948 2.1586,0.87213zM238.04614,164.79883c0.63052,-1.18392 1.21948,-2.38419 1.76681,-3.60011c-0.93985,-1.36358 -2.0867,-2.59045 -3.45712,-3.63686c-2.05814,-1.57153 -4.26605,-3.77279 -6.59483,-2.6084c-0.54125,3.1474 3.87282,5.75031 5.92465,7.76698c0.75034,0.73747 1.53936,1.42865 2.36048,2.0784zM245.43543,182.94794c-0.60169,0.37162 -1.00121,0.6183 -1.05325,0.65045c-4.53236,2.8003 -9.02431,5.73841 -13.55802,8.59857c1.59038,2.12121 3.19396,4.23148 4.81426,6.3282c4.05815,-1.07647 8.12226,-2.11969 12.19872,-3.11859c-0.32905,-2.35209 -0.6963,-4.69593 -1.11069,-7.02191c-0.32284,-1.8121 -0.78759,-3.62562 -1.29103,-5.43671zM248.47819,200.38107c-3.17304,0.77864 -6.33894,1.5846 -9.50106,2.41311c3.06319,3.86825 6.19274,7.68327 9.41143,11.42814c0.44851,-0.24728 0.89657,-0.49548 1.34421,-0.74452c-0.21372,-1.93997 -0.29794,-3.8595 -0.44957,-5.47038c-0.23869,-2.53575 -0.50329,-5.0819 -0.80501,-7.62635zM219.86677,202.85655c-0.56697,-1.04905 -1.13064,-2.09969 -1.69146,-3.15174c-5.96322,3.21572 -12.15444,5.94226 -18.11352,9.12654c3.47964,-1.17231 6.96152,-2.30603 10.50231,-3.32308c3.10416,-0.89163 6.2041,-1.77719 9.30266,-2.65172zM244.07205,178.12074c-0.38996,-1.43386 -0.74632,-2.86401 -1.01721,-4.28852c-0.18036,-0.09211 -0.35995,-0.18509 -0.53879,-0.27896c-1.79498,0.89772 -3.59144,1.79248 -5.38911,2.68491l-0.01343,0.01343c0,0 0,0 0,0c-0.38173,0.38173 -0.88635,0.64059 -1.44942,0.71215c-2.3807,1.17985 -4.76338,2.35592 -7.1474,3.5297c-1.35254,1.02563 -2.71477,2.03797 -4.08711,3.03595c1.11845,1.53747 2.24121,3.07114 3.3696,4.60007c3.23833,-2.06056 6.45723,-4.15227 9.70132,-6.15662c2.11566,-1.30715 4.36281,-2.55374 6.57155,-3.85211zM253.37489,199.20323c0.3364,2.78125 0.6277,5.56551 0.88649,8.33749c0.09935,1.06412 0.20708,2.12922 0.33767,3.1912c5.67275,-3.24099 11.2925,-6.57449 16.91541,-9.84284c4.09633,-2.38102 7.92174,-5.02137 11.83772,-7.66882c-2.45738,0.38609 -4.8991,0.81203 -7.3828,1.25909c-7.60895,1.36961 -15.12608,2.96475 -22.59448,4.72388zM235.31505,221.02549c2.88255,-1.39558 5.73712,-2.85612 8.57037,-4.36287c-3.48667,-4.07965 -6.8616,-8.24613 -10.16272,-12.47096c-2.14787,0.57934 -4.29483,1.1679 -6.44194,1.76417c0.76738,1.40261 1.54016,2.80274 2.3191,4.20006c0.17858,0.32034 4.91668,8.77747 4.95677,8.89525c0.2173,0.63855 0.49522,1.30188 0.75843,1.97434zM208.61244,170.24202c1.97723,3.84527 3.94686,7.69264 5.92406,11.53558c0.59934,-0.29292 1.19912,-0.58608 1.799,-0.88022c-0.68679,-0.94439 -1.37334,-1.88911 -2.06002,-2.83387c-1.89238,-2.60359 -3.60303,-5.3491 -5.66304,-7.8215zM226.58059,194.83579c-1.32638,0.81042 -2.65843,1.60861 -3.99817,2.38928c0.74976,1.41417 1.50335,2.82654 2.26154,4.23676c1.86086,-0.51737 3.72179,-1.0298 5.58339,-1.53623c-1.29107,-1.68952 -2.57253,-3.38672 -3.84675,-5.08982zM220.24584,192.79038c1.11344,-0.65621 2.22072,-1.32643 3.32358,-2.00608c-1.07199,-1.45109 -2.14012,-2.90541 -3.20584,-4.36189c-0.84006,0.58445 -1.68394,1.16332 -2.53175,1.73636c0.80175,1.54532 1.60609,3.08933 2.41401,4.63161z" fill="url(#color-1)" stroke="none" stroke-width="0.5"/><g><path d="M286.78541,180c0,19.51661 -20.94654,35.33795 -46.78541,35.33795c-25.83887,0 -46.78541,-15.82134 -46.78541,-35.33795c0,-19.51661 20.94654,-35.33795 46.78541,-35.33795c25.83887,0 46.78541,15.82134 46.78541,35.33795z" fill="url(#color-2)" stroke="#ff0000" stroke-width="1.5"/><text transform="translate(209.12006,174.24323) scale(0.2211,0.2211)" font-size="40" xml:space="preserve" fill="#ff0000" fill-rule="nonzero" stroke="none" stroke-width="1" stroke-linecap="butt" stroke-linejoin="miter" stroke-miterlimit="10" stroke-dasharray="" stroke-dashoffset="0" font-family="Sans Serif" font-weight="normal" text-anchor="start" style="mix-blend-mode: normal"><tspan x="0" dy="0">definetly not</tspan><tspan x="0" dy="46.15px"> normal scratch</tspan><tspan x="0" dy="46.15px"> cat</tspan></text></g></g></g></g></svg>