<svg version="1.1" xmlns="http://www.w3.org/2000/svg" xmlns:xlink="http://www.w3.org/1999/xlink" width="99.25697" height="137.21467" viewBox="0,0,99.25697,137.21467"><g transform="translate(-190.37152,-111.39267)"><g data-paper-data="{&quot;isPaintingLayer&quot;:true}" stroke-miterlimit="10" stroke-dasharray="" stroke-dashoffset="0" style="mix-blend-mode: normal"><g fill-rule="evenodd"><path d="M224.78949,200.77922c0.8,0.4 2.5,1.3 0.1,4.7c-2.4,3.4 -9.3,4.1 -10.1,4.1c-3.1,0.1 -6.9,0.1 -11.1,-1.3c-12.2,-4 -12.3,-17.1 -8.4,-19.2c3.8,-2.1 5.5,6 11,10.9c2.4,2.2 5.3,3 7.7,3.5c3.4,0.6 9.9,-3.2 10.8,-2.7z" fill="#ffab19" stroke="#001026" stroke-width="1.2" stroke-linecap="round" stroke-linejoin="round"/><path d="M199.98949,192.67922c1.6,2.7 4.7,6.5 4.7,6.5c0,0 -3.7,-0.9 -5.8,0.8c-1.7,1.3 -1.3,3.5 -1.1,4.2c-1.3,-1.3 -2.9,-3.1 -3.9,-6.6c-1,-3.5 0,-7.7 2,-8.3c2,-0.4 2.5,1.1 4.1,3.4z" fill="#ffffff" stroke="none" stroke-width="1" stroke-linecap="butt" stroke-linejoin="miter"/><path d="M229.78949,211.17922c-1.8,1.2 -8,5.6 -15.9,8.1l-0.4,0.1c-0.4,0.1 -0.6,0.6 -0.4,1c1.7,2.4 4.8,7.2 -0.7,8.9c-5.3,1.7 -15.2,-12.4 -11,-16.1c1.9,-1.4 3.6,-0.7 4.5,-0.3c0.5,0.2 1,0.2 1.5,0.1c1.2,-0.4 3.4,-1.2 5.1,-2.1c4.3,-2.2 5.3,-3.1 7.3,-4.6c2,-1.5 6.6,-5.2 10.3,-2c3.2,2.7 1.4,5.7 -0.3,6.9z" fill="#ffab19" stroke="#001026" stroke-width="1.2" stroke-linecap="round" stroke-linejoin="round"/><path d="M245.68949,190.37922c0.5,0.4 6.6,7.6 8.6,5.8c2.4,-2.1 5.7,-6.2 9.3,-2.9c3.6,3.3 -3.2,8.9 -6.1,10.4c-6.9,3.1 -12.5,-2.8 -13.7,-4.4c-1.2,-1.6 -3.3,-4.3 -3.3,-6.9c0.1,-2.8 3.5,-3.5 5.2,-2z" fill="#ffab19" stroke="#001026" stroke-width="1.2" stroke-linecap="round" stroke-linejoin="round"/><path d="M245.78949,213.67922c2.1,1.9 6.7,5.8 6.7,5.8c0,0 14.3,-2.5 14.3,4.7c0,4.3 -7.2,5.3 -16.9,4.4c-0.6,-0.1 -1.2,-0.3 -1.7,-0.7c-2.2,-1.9 -8.5,-7.5 -12.5,-11.4c-5.9,-5.8 -10.8,-9.6 -10.8,-9.6c-8.5,-8.3 -1.6,-11.8 1.1,-16.6c2.5,-4.1 3.6,-3.3 9.6,-2.1c3.4,0.5 5.4,0.8 7.6,0.7c3.3,-0.1 2.7,4.7 1.8,7.2c0,0 -1.4,3.7 -2.7,5.6c-1.6,2.3 -2.8,3.8 -4,4.7z" fill="#ffab19" stroke="#001026" stroke-width="1.2" stroke-linecap="round" stroke-linejoin="round"/><path d="M237.38949,206.27922c0,0 -1.5,-1.2 -3.1,-2.7c-2,-1.8 -4,-3.3 -2,-6.4c1.8,-2.4 3.5,-5.6 8,-2.7c4.3,2.7 2.4,5.2 2.4,5.2c-2.2,4.5 -5.3,6.6 -5.3,6.6z" fill="#ffffff" stroke="none" stroke-width="1" stroke-linecap="butt" stroke-linejoin="miter"/><path d="M222.28949,198.07922c2.2,2.8 5.6,6.3 1.3,9.2c-5.9,3.3 -10.8,-6.7 -11.8,-10.2c-0.9,-3.1 1.7,-5.1 3.9,-6.8c4.3,-3.1 7.9,-5.9 11.9,-4.4c5,1.8 1.4,5.8 -1.1,7.6c-1.5,1.1 -3,2.3 -4.1,3c-0.3,0.5 -0.4,1.1 -0.1,1.6z" fill="#ffab19" stroke="#001026" stroke-width="1.2" stroke-linecap="round" stroke-linejoin="round"/><path d="M253.78949,130.67922c0.3,-0.2 0.8,-0.1 0.9,0.3l2.6,10.7c0,0 6.4,4.7 8.3,8c3.2,5.5 3.3,10 3.3,10c0,0 7.1,2.1 8.3,7.8c1.2,5.7 -3.2,16.5 -22,20.2c-18.8,3.7 -33.9,-1.4 -41,-12.8c-7.1,-11.4 4.1,-25 3.5,-24.2l-2.1,-17.9c-0.1,-0.4 0.4,-0.7 0.8,-0.5l12.1,7.9c0,0 4.5,-1.7 9.2,-1.9c2.8,-0.2 5.2,0 7.5,0.4z" fill="#ffab19" stroke="#001026" stroke-width="1.2" stroke-linecap="butt" stroke-linejoin="miter"/><path d="M268.58949,160.07922c0,0 6.9,1.8 8.1,7.5c1.2,5.7 -3.6,16 -22.2,19.6c-24.2,5 -35.7,-9.4 -29,-20c6.7,-10.7 18.2,-1.6 26.6,-2.2c7.2,-0.5 8,-6.8 16.5,-4.9z" fill="#ffffff" stroke="none" stroke-width="1" stroke-linecap="butt" stroke-linejoin="miter"/><path d="M237.08949,170.77922c0,-0.4 0.4,-0.7 0.8,-0.6c1.9,0.7 7.3,2.3 13.3,2.7c5.4,0.3 8.6,0 10.1,-0.3c0.5,-0.1 0.9,0.4 0.7,0.9c-0.9,2.7 -4.7,10.2 -15.2,9.6c-9.1,-1 -10,-7.4 -9.7,-12.3z" fill="#ffffff" stroke="#001026" stroke-width="1.2" stroke-linecap="round" stroke-linejoin="round"/><path d="M286.98949,161.17922c-4.7,3.8 -11.9,3.9 -11.9,3.9" fill="none" stroke="#001026" stroke-width="1.2" stroke-linecap="round" stroke-linejoin="round"/><path d="M285.68949,172.37922c-6.3,0.5 -10.2,-1.4 -10.2,-1.4" fill="none" stroke="#001026" stroke-width="1.2" stroke-linecap="round" stroke-linejoin="round"/><path d="M251.68949,162.37922c2.1,0 4.3,0.2 4.4,0.9c0.1,1.4 -1.4,4.2 -3,4.3c-1.8,0.2 -6,-2.3 -6,-3.9c-0.1,-1.2 2.6,-1.3 4.6,-1.3z" fill="#001026" stroke="#001026" stroke-width="1.2" stroke-linecap="round" stroke-linejoin="round"/><path d="M206.68949,160.87922c0,0 8.6,2.8 12.1,5.9" fill="none" stroke="#001026" stroke-width="1.2" stroke-linecap="round" stroke-linejoin="round"/><path d="M219.08949,170.27922c-4.3,1.7 -11.7,0.6 -11.7,0.6" fill="none" stroke="#001026" stroke-width="1.2" stroke-linecap="round" stroke-linejoin="round"/><path d="M263.48949,150.67922c2.9,4.5 3,9.6 0.2,11.4c-2.8,1.8 -7.4,-0.3 -10.4,-4.8c-2.9,-4.5 -3,-9.6 -0.2,-11.4c2.8,-1.9 7.5,0.3 10.4,4.8z" fill="#ffffff" stroke="#001026" stroke-width="1.2" stroke-linecap="round" stroke-linejoin="round"/><path d="M263.08949,156.37922c0,1.1 -0.8,2 -1.8,2c-1,0 -1.8,-0.9 -1.8,-2c0,-1.1 0.8,-2 1.8,-2c1,0 1.8,0.9 1.8,2" fill="#001026" stroke="none" stroke-width="1" stroke-linecap="butt" stroke-linejoin="miter"/><path d="M238.68949,153.47922c3,4.4 2.8,9.8 0.1,11.7c-3.3,1.9 -7.7,0.5 -10.7,-3.9c-3.1,-4.4 -3.3,-10.1 -0.2,-12.3c3.1,-2.3 7.8,0.1 10.8,4.5z" fill="#ffffff" stroke="#001026" stroke-width="1.2" stroke-linecap="round" stroke-linejoin="round"/><path d="M238.08949,159.27922c0,1.1 -0.8,2 -1.8,2c-1,0 -1.8,-0.9 -1.8,-2c0,-1.1 0.8,-2 1.8,-2c1,0.1 1.8,0.9 1.8,2" fill="#001026" stroke="none" stroke-width="1" stroke-linecap="butt" stroke-linejoin="miter"/></g><g fill-rule="nonzero" stroke-linecap="butt" stroke-linejoin="miter"><g><path d="M289.53117,235.27774c-0.60634,2.42536 -3.0317,1.81902 -3.0317,1.81902l-1.97975,-0.49494c-9.10188,-2.32279 -15.46029,-8.17972 -22.66718,-13.79209c-3.15336,-2.45568 -6.42929,-4.88414 -9.80173,-7.20292c-0.21075,1.69009 -0.54403,3.39316 -1.024,5.12521c-0.96515,3.36812 -2.29034,6.66394 -4.01349,9.7146c-0.84842,1.50205 -1.26638,3.37407 -2.58973,4.48074c-5.01079,4.19031 -7.42529,2.20328 -7.75152,-4.35827c-0.09519,-1.91452 1.27285,-3.61648 1.93933,-5.41376c1.21859,-3.28614 2.89535,-6.4218 4.86233,-9.3226c0.91763,-1.35326 1.8513,-2.69267 2.79912,-4.02009c-0.74394,-0.46472 -1.49165,-0.92227 -2.24285,-1.37186c-2.41363,1.30931 -4.84019,2.54529 -7.20515,3.73014l-0.27076,0.6421c-0.36598,0.92646 -1.26946,1.58191 -2.32604,1.58191c-0.60128,0 -1.15299,-0.21227 -1.58426,-0.56597c-1.30547,0.44803 -2.60282,0.86662 -3.90157,1.26151c-4.02012,5.23038 -8.24032,10.33098 -12.7283,15.27408c-4.59252,5.05825 -9.09014,10.05267 -14.75826,13.96889c-1.21605,0.84019 -2.46061,2.68336 -3.85459,2.19191c-6.88173,-2.42614 -5.89201,-10.54995 -6.47558,-16.02951c-0.18727,-1.75847 -0.57839,-3.50813 -0.5528,-5.27635c0.07143,-4.93548 1.39545,-10.26962 2.06959,-15.16464c0.65916,-4.78626 0.66946,-10.69341 2.14274,-15.2828c0.08698,-0.27095 4.57562,-8.77623 4.82471,-9.2496c1.07625,-2.04528 2.15233,-4.09064 3.22861,-6.13591c-1.11515,-1.516 -2.26474,-3.98827 -1.12385,-5.44479c0.97247,-1.2415 2.79152,-1.08259 4.53335,-1.03166c0.8197,-1.55615 1.63973,-3.11212 2.46027,-4.66783c-0.87919,-0.38738 -1.49295,-1.26646 -1.49295,-2.28889c0,-0.32934 0.06368,-0.64381 0.17941,-0.93176l1.73539,-4.6277c0.59738,-3.26311 2.56838,-5.23585 4.46947,-7.86198c2.71321,-3.74798 5.55999,-7.33926 8.55377,-10.80761c-2.17922,-0.37613 -4.35296,-0.78525 -6.52332,-1.21296c-0.62054,1.91425 -1.12335,3.81713 -1.48643,5.66978c0,0 -0.49029,2.45145 -2.94174,1.96116c-2.45145,-0.49029 -1.96116,-2.94174 -1.96116,-2.94174c0.38819,-1.90688 0.90017,-3.80217 1.51481,-5.67605c-3.64193,-0.75228 -7.27875,-1.52666 -10.92043,-2.25478c0,0 -2.45145,-0.49029 -1.96116,-2.94174c0.49029,-2.45145 2.94174,-1.96116 2.94174,-1.96116c3.90816,0.78186 7.81073,1.61885 11.72029,2.42334c1.84522,-4.36251 4.17144,-8.55579 6.69244,-12.44678c2.42938,-3.74957 3.17677,-5.53255 6.82693,-8.35882c4.00447,-3.10061 9.56197,-7.04043 14.16375,-2.60421c2.91993,2.81488 1.18294,6.44678 0.5295,9.58077c-0.34695,1.66402 -0.80117,3.28165 -1.34013,4.86282c0.10649,-0.01007 0.21055,-0.01317 0.31192,-0.00885c5.95699,0.25385 2.77832,8.24217 2.39415,10.00068c-0.2529,1.15764 -0.53184,2.29793 -0.83538,3.4229c3.95699,0.48385 7.90645,1.01692 11.83197,1.74636c0.82006,-0.74331 1.63892,-1.48764 2.45601,-2.23353c1.35554,-1.23741 2.7456,-2.48313 4.1183,-3.75906c2.22035,-4.11077 4.47562,-8.20505 6.72754,-12.29529c0.88952,-1.61566 1.26383,-3.66725 2.6924,-4.83377c0.13805,-0.11273 0.27931,-0.22033 0.42343,-0.3233l-0.0317,-0.04227l3.93346,-2.95009c0.42124,-0.32311 0.94829,-0.51515 1.5202,-0.51515c1.38071,0 2.5,1.11929 2.5,2.5c0,0.31231 -0.05727,0.61125 -0.16187,0.88688l-1.2818,3.63175c-2.43983,6.74855 -7.13782,12.13312 -12.32023,17.07919c-0.83533,1.50455 -1.6769,3.01202 -2.51557,4.52383c2.04611,0.52654 4.06048,1.18239 6.04363,2.09925c0.68987,0.31894 1.4913,0.55677 2.17178,0.92355c0.11202,-0.01535 0.2264,-0.02329 0.34263,-0.02329c1.38071,0 2.5,1.11929 2.5,2.5c0,0.25786 -0.03904,0.50661 -0.11153,0.74065l-0.55873,1.96068c-0.03653,1.74301 -0.45479,3.51383 -0.69766,5.11797c-1.82317,2.79359 -3.09451,5.0844 -5.17263,7.32223c-2.13652,3.66904 -4.40867,7.24069 -6.71199,10.80485c0.53561,-0.10184 1.07252,-0.19984 1.61089,-0.2937c1.82162,-0.31759 10.41398,-1.7876 11.7271,-0.18562c1.49013,1.81792 1.49506,3.79587 0.85572,5.68842c0.89937,0.37859 1.53079,1.26815 1.53079,2.30519c0,0.05755 -0.00194,0.11464 -0.00577,0.17122l-0.21447,3.59088c0,0 -0.14905,2.49555 -2.6446,2.3465c-0.47506,-0.02837 -0.85428,-0.14178 -1.15694,-0.30681c-5.84119,6.9386 -11.61788,13.86807 -17.03846,21.09794c3.95769,2.66005 7.79439,5.47862 11.4742,8.3433c6.59309,5.13264 12.47164,10.83491 20.82311,12.89513l1.97391,0.49348c0,0 2.42536,0.60634 1.81902,3.0317zM217.5876,219.97711c-4.36557,0.9711 -7.06424,2.04072 -11.44865,1.34563c-0.8402,-0.1332 -6.43562,-1.03712 -6.79937,-1.30686c-1.08681,-0.80595 -1.93225,-1.62822 -2.59919,-2.49026c-0.2349,1.70617 -0.47089,3.41218 -0.70915,5.11786c-0.70845,5.07175 -0.08913,9.20707 0.40371,14.28474c0.15387,1.58524 -0.08551,5.13499 1.47236,6.62281c0.26896,0.25686 -0.06168,-0.83 0.19573,-1.09843c1.15356,-1.20294 2.58645,-2.10271 3.88083,-3.15265c3.88296,-3.14968 6.97109,-6.59883 10.32824,-10.29642c2.88777,-3.18062 5.66247,-6.42775 8.34288,-9.73367c-1.00933,0.24165 -2.03045,0.47659 -3.06739,0.70725zM203.78527,197.41871c10.57869,-3.46251 20.90711,-1.92278 30.8087,2.42868c1.11205,-4.30832 2.25877,-8.61829 3.4864,-12.90486c-1.33036,0.31616 -2.66395,0.58493 -4.00225,0.78393c-0.23057,0.03429 -9.80314,0.02295 -9.81471,0.02295c-5.79887,-0.36007 -10.93389,-0.76497 -16.30649,-3.252c-0.34475,-0.15959 -0.70261,-0.30899 -1.06455,-0.45712c-1.01923,1.93686 -2.03862,3.87364 -3.05783,5.81051c-1.48517,2.82237 -3.51396,5.41287 -4.48878,8.44951c-0.11342,0.35331 -0.21172,0.71001 -0.29757,1.06951c1.62231,-0.85034 3.32818,-1.48995 4.73709,-1.9511zM244.08294,204.69307c0.87853,-0.50056 1.75139,-1.0125 2.61447,-1.53709c-0.12319,-0.79076 -0.25892,-1.58688 -0.40352,-2.38982c-0.19907,-1.10535 -0.41364,-2.20083 -0.64296,-3.28765c-1.16111,2.04883 -2.32446,4.09974 -3.51728,6.1266c0.65198,0.35631 1.30179,0.71911 1.9493,1.08796zM256.10424,196.36634c1.7657,-1.56668 4.53269,-5.58738 5.86985,-7.42014c1.83093,-2.50953 3.87027,-4.87982 5.49051,-7.53027c0.44585,-0.72933 1.65118,-1.7669 1.02625,-2.35014c-0.65171,-0.60823 -1.61598,0.78912 -2.48473,0.98896c-3.15729,0.72628 -6.40101,1.02082 -9.57268,1.68146c-0.5088,0.10598 -1.01707,0.22009 -1.52488,0.3411c-1.4443,2.24506 -2.87796,4.50687 -4.27528,6.80753c-0.44935,0.73984 -0.89369,1.48507 -1.33442,2.23433c0.73986,2.86756 1.38328,5.78168 1.91645,8.76395c0.01731,0.0968 0.03447,0.19349 0.05148,0.29008c1.70016,-1.1999 3.32514,-2.465 4.83747,-3.80687zM253.80646,167.72396c0.74831,-0.38788 1.46263,-0.80045 2.14696,-1.23663c1.06432,-1.84895 2.09911,-3.71667 3.08667,-5.6266c0.22286,-0.43101 4.73512,-9.18937 4.87698,-9.31317c0.12924,-0.11278 0.26169,-0.22077 0.39702,-0.32444l-0.03188,-0.0394l0.08651,-0.07001c-2.01687,-0.68932 -3.97372,-1.27828 -5.95767,-1.79519c-2.30004,4.25344 -4.50436,8.55222 -6.4137,12.92743c-1.04652,2.39808 -2.02896,4.82334 -2.9575,7.27038c1.42368,-0.28188 2.64836,-0.6944 4.76661,-1.79238zM225.89555,177.79371c-1.19064,0.14329 -2.38115,0.28644 -3.5717,0.42873l0.26909,0.21871l-3.14004,3.86329c-0.00511,0.00639 -0.01024,0.01275 -0.01541,0.01908c1.5839,0.19235 3.22136,0.31751 4.98195,0.42831c2.9884,-0.00074 6.00988,0.46652 8.96518,0.02295c2.21117,-0.33188 4.33398,-1.06741 6.46164,-1.78196c0.17036,-0.5528 0.34245,-1.10501 0.51637,-1.65658c-0.36772,-1.00772 -0.74557,-2.01387 -1.13286,-3.01958c-4.45362,0.5887 -8.96122,0.95076 -13.33421,1.47705zM212.23496,179.39175c-0.82818,0.09167 -1.70375,0.28645 -2.57487,0.39169c0.10161,0.04813 0.20425,0.09379 0.30817,0.13636c1.79715,0.73622 3.49183,1.26677 5.174,1.6599c-0.09258,-0.26121 -0.14296,-0.54239 -0.14296,-0.83534c0,-0.45034 0.11907,-0.87287 0.32746,-1.23782l0.26937,-0.49385c-1.12005,0.12846 -2.2404,0.25501 -3.36116,0.37906zM205.31117,202.18018c-1.1309,0.35332 -6.06445,2.17605 -6.82251,3.77741c-0.39264,0.82944 0.31349,1.8085 0.48663,2.7097c0.51122,2.66103 0.46194,5.2682 2.92402,7.0535c1.37782,0.99908 3.38555,0.37445 5.06162,0.66997c4.70421,0.82943 9.79881,-1.29736 14.44466,-2.31128c1.44874,-0.31617 2.82932,-0.6831 4.18005,-1.0894c2.20567,-2.89823 4.35054,-5.83619 6.4465,-8.809c-8.66505,-3.72516 -17.42221,-4.90609 -26.72098,-2.00091zM230.55706,134.4802c0.13078,-0.13067 0.27347,-0.27534 0.42666,-0.43144c1.99896,-3.84983 3.69217,-7.82864 4.67885,-12.1498c0.38418,-1.68254 1.80208,-3.82439 0.67697,-5.13307c-1.34911,-1.56923 -1.90641,-0.03617 -3.41823,0.8832c-2.5526,1.55228 -5.2698,3.09104 -7.13349,5.426c-3.32301,4.16329 -6.3486,9.34587 -8.59164,14.69134c2.89438,0.5634 5.7954,1.08924 8.70815,1.54219c1.51447,-1.63368 3.06487,-3.24187 4.65274,-4.82842zM236.24764,154.34998c0.39724,0.87246 0.76037,1.79918 1.10284,2.75119c3.58207,-3.31399 7.21062,-6.58229 10.83698,-9.85057c-2.85746,-0.4471 -5.72525,-0.81402 -8.59649,-1.15951c-0.97035,2.82476 -2.09327,5.56578 -3.34332,8.2589zM245.64369,179.23757c0.0022,0.00623 0.00441,0.01246 0.00661,0.01868c1.05198,-0.29196 2.10425,-0.57818 3.15801,-0.85631c0.95177,-1.55572 1.8997,-3.11666 2.84526,-4.68221c0.01015,-0.0168 0.02029,-0.03359 0.03043,-0.05039c-1.50844,0.49773 -3.04741,0.91724 -4.60802,1.27693c-0.49216,1.42554 -0.96894,2.85698 -1.4323,4.29328zM247.41472,160.2461c1.4712,-3.37122 3.18382,-6.69804 4.94723,-9.99319c-4.43487,4.01299 -8.90602,7.99588 -13.28283,12.07085c0.44267,1.34782 0.89258,2.6414 1.38827,3.79781c0.64261,1.49916 1.26917,2.99315 1.87754,4.48535c0.33969,-0.05355 0.67927,-0.10789 1.01872,-0.16307c1.24644,-3.44173 2.58822,-6.84563 4.05108,-10.19775zM233.17496,149.33261c0.54797,-1.25085 1.06882,-2.52084 1.55934,-3.81576c-1.40555,-0.16633 -2.811,-0.33546 -4.21555,-0.51426c-0.40883,0.69026 -0.81724,1.38091 -1.22279,2.07303c0.37102,0.0129 0.74496,0.06909 1.12046,0.17502c1.12225,0.31658 2.00072,1.12367 2.75853,2.08198zM237.05245,136.64889c0.18549,-0.69521 0.34713,-1.40149 0.54335,-2.09523c-0.81054,1.0331 -1.7656,2.00996 -2.75552,2.95253c-0.50894,0.93898 -1.0329,1.8717 -1.56601,2.80077c0.96936,0.11816 1.93892,0.23348 2.90843,0.34811c0.27952,-1.33773 0.518,-2.68788 0.86975,-4.00618zM233.18223,161.00334c-0.04101,-0.11396 -0.08205,-0.22789 -0.12315,-0.3418c-0.17458,0.32114 -0.35074,0.64199 -0.52844,0.96261c0.21446,-0.20521 0.42931,-0.40995 0.64459,-0.61418c0.00233,-0.00221 0.00466,-0.00442 0.007,-0.00664zM230.67373,154.58551c-0.02879,-0.06435 -0.05771,-0.12862 -0.08677,-0.19282c-0.37451,-0.8274 -0.59892,-1.98562 -1.44798,-2.308c-0.66098,-0.25097 -1.30574,0.59399 -1.83673,1.06083c-1.06217,0.93386 -2.00908,1.99923 -2.89643,3.10055c-4.07816,5.0615 -7.58006,10.74161 -11.3386,16.04771c-0.35431,0.67514 -0.70874,1.35021 -1.06325,2.02524c2.26898,-0.25472 4.54603,-0.46658 6.81327,-0.71737c2.32627,-3.18021 4.60067,-6.3277 6.63702,-9.72639c1.85432,-3.09054 3.61286,-6.15341 5.21947,-9.28975zM235.87161,168.09106c-0.27882,-0.65078 -0.5458,-1.3079 -0.80463,-1.96936c-2.2036,2.12917 -4.33529,4.25646 -6.49511,6.33151c2.8946,-0.34465 5.78754,-0.70094 8.6747,-1.09743c-0.44896,-1.08607 -0.90757,-2.17383 -1.37496,-3.26472zM243.55696,226.25618c0.44642,-0.90767 0.86291,-1.83143 1.24456,-2.76888c-0.44612,0.90926 -0.86041,1.83402 -1.24456,2.76888z" fill="#000000" stroke="none" stroke-width="0.5"/><text transform="translate(195.48785,163.00224) scale(0.49109,0.49109)" font-size="40" xml:space="preserve" fill="#00cbcc" fill-rule="nonzero" stroke="#007878" stroke-width="1" stroke-linecap="butt" stroke-linejoin="miter" stroke-miterlimit="10" stroke-dasharray="" stroke-dashoffset="0" font-family="Sans Serif" font-weight="normal" text-anchor="start" style="mix-blend-mode: normal"><tspan x="0" dy="0">scratch</tspan><tspan x="0" dy="46.15px"> plus plus</tspan><tspan x="0" dy="46.15px"> logo</tspan></text></g><text transform="translate(235.85146,223.99398) rotate(-20.37437) scale(0.21569,0.21569)" font-size="40" xml:space="preserve" fill="#00cbcc" fill-rule="nonzero" stroke="none" stroke-width="1" stroke-linecap="butt" stroke-linejoin="miter" stroke-miterlimit="10" stroke-dasharray="" stroke-dashoffset="0" font-family="Sans Serif" font-weight="normal" text-anchor="start" style="mix-blend-mode: normal"><tspan x="0" dy="0">wow!</tspan></text></g></g></g></svg>